<?xml version="1.0" encoding="utf-8"?>
<!DOCTYPE svg PUBLIC "-//W3C//DTD SVG 1.1//EN" "http://www.w3.org/Graphics/SVG/1.1/DTD/svg11.dtd">
<svg version="1.1" id="圖層_1" xmlns="http://www.w3.org/2000/svg" xmlns:xlink="http://www.w3.org/1999/xlink" x="0px" y="0px"
	 width="249.768px" height="112px" viewBox="0 0 249.768 112" enable-background="new 0 0 249.768 112" xml:space="preserve">
<text transform="matrix(0.949 0 0 1 117.585 40.2529)" fill="#717171" font-family="'MicrosoftJhengHeiRegular'" font-size="23.2136">國立台灣大學</text>
<polygon fill="#E3E7EB" points="2.898,65.903 19.666,90.826 20.272,77.631 "/>
<polygon fill="#F0EFEF" points="7.571,41.034 19.145,76.482 2.898,65.903 "/>
<polyline fill="#E0E0E0" points="25.058,38.852 32.06,48.789 7.571,41.034 25.021,38.423 "/>
<g>
	<g>
		<linearGradient id="SVGID_1_" gradientUnits="userSpaceOnUse" x1="30.2139" y1="78.3896" x2="68.0239" y2="78.3896">
			<stop  offset="0" style="stop-color:#1B2953"/>
			<stop  offset="1" style="stop-color:#3493C3"/>
		</linearGradient>
		<linearGradient id="SVGID_2_" gradientUnits="userSpaceOnUse" x1="29.7139" y1="78.3896" x2="68.5239" y2="78.3896">
			<stop  offset="0" style="stop-color:#1B2953"/>
			<stop  offset="1" style="stop-color:#3493C3"/>
		</linearGradient>
		<path fill="url(#SVGID_1_)" stroke="url(#SVGID_2_)" stroke-miterlimit="10" d="M68.015,57.857
			c0.009-0.812-0.313-1.624-0.955-2.18c-1.12-0.993-2.791-0.829-3.729,0.356c-0.051,0.06-0.093,0.125-0.136,0.195L30.628,97.411
			l0.02,0.018c-0.729,1.17-0.53,2.757,0.512,3.671c0.469,0.406,1.02,0.615,1.581,0.643v0.008H53.86
			c0.791,0.035,1.595-0.303,2.142-0.997c0.94-1.18,0.784-2.94-0.338-3.924c-0.472-0.425-1.059-0.633-1.642-0.645v-0.004H54
			c-0.015,0-0.024,0-0.038,0l-15.484,0.008L62.74,65.555v31.418c-0.009,0.078-0.015,0.153-0.015,0.234
			c-0.004,1.543,1.183,2.789,2.641,2.793c1.453,0.004,2.638-1.23,2.651-2.76h0.006L68.015,57.857L68.015,57.857z"/>
		<linearGradient id="SVGID_3_" gradientUnits="userSpaceOnUse" x1="112.5786" y1="79.0566" x2="156.3638" y2="79.0566">
			<stop  offset="0" style="stop-color:#1B2953"/>
			<stop  offset="1" style="stop-color:#3493C3"/>
		</linearGradient>
		<linearGradient id="SVGID_4_" gradientUnits="userSpaceOnUse" x1="112.0786" y1="79.0566" x2="156.8638" y2="79.0566">
			<stop  offset="0" style="stop-color:#1B2953"/>
			<stop  offset="1" style="stop-color:#3493C3"/>
		</linearGradient>
		<path fill="url(#SVGID_3_)" stroke="url(#SVGID_4_)" stroke-miterlimit="10" d="M134.472,55.992
			c-12.09,0-21.894,10.323-21.894,23.063s9.804,23.064,21.894,23.064c12.089,0,21.892-10.324,21.892-23.064
			S146.561,55.992,134.472,55.992z M134.472,96.858c-9.332,0-16.892-7.973-16.892-17.803c0-9.832,7.56-17.805,16.892-17.805
			c9.328,0,16.896,7.973,16.896,17.805C151.368,88.886,143.8,96.858,134.472,96.858z"/>
		<linearGradient id="SVGID_5_" gradientUnits="userSpaceOnUse" x1="165.0474" y1="78.8105" x2="195.8892" y2="78.8105">
			<stop  offset="0" style="stop-color:#1B2953"/>
			<stop  offset="1" style="stop-color:#3493C3"/>
		</linearGradient>
		<linearGradient id="SVGID_6_" gradientUnits="userSpaceOnUse" x1="164.5474" y1="78.8105" x2="196.3892" y2="78.8105">
			<stop  offset="0" style="stop-color:#1B2953"/>
			<stop  offset="1" style="stop-color:#3493C3"/>
		</linearGradient>
		<path fill="url(#SVGID_5_)" stroke="url(#SVGID_6_)" stroke-miterlimit="10" d="M188.733,77.603c3.13-2.4,5.165-5.933,5.165-9.739
			c0-6.854-6.655-12.812-14.386-12.82v-0.002l-11.751,0.039v0.001c-0.757,0.003-1.504,0.344-2.025,1.004
			c-0.932,1.182-0.784,2.942,0.337,3.931c0.497,0.431,1.095,0.641,1.688,0.641v0.008l11.883,0.034v-0.008
			c4.954,0.049,8.902,2.748,8.902,7.154c0,4.445-4.021,7.278-9.034,7.284v-0.018l-11.751,0.066v0.004
			c-0.757,0.002-1.504,0.342-2.025,1.003c-0.932,1.182-0.784,2.941,0.337,3.93c0.497,0.431,1.095,0.642,1.688,0.644v0.004
			l11.883,0.035l-0.002-0.069c0.014,0,0.025,0,0.037,0l-0.004,0.069c0.283-0.021,0.57-0.023,0.859-0.023
			c5.379,0,9.863,3.346,9.863,8.088s-4.353,7.79-9.496,8.067c-0.012,0-0.016,0.004-0.027,0.004v-0.018l-13.198,0.037v0.004
			c-0.753,0.008-1.494,0.348-2.019,1.003c-0.929,1.182-0.785,2.94,0.342,3.924c0.518,0.456,1.152,0.665,1.777,0.646l0,0l13,0.028
			c0.035,0.012,0.076,0.021,0.109,0.021c8.291,0,15.003-6.36,15.003-13.68C195.889,84.124,193.027,79.933,188.733,77.603z"/>
		<linearGradient id="SVGID_7_" gradientUnits="userSpaceOnUse" x1="200.6851" y1="78.793" x2="244.4653" y2="78.793">
			<stop  offset="0" style="stop-color:#1B2953"/>
			<stop  offset="1" style="stop-color:#3493C3"/>
		</linearGradient>
		<linearGradient id="SVGID_8_" gradientUnits="userSpaceOnUse" x1="200.1851" y1="78.793" x2="244.9653" y2="78.793">
			<stop  offset="0" style="stop-color:#1B2953"/>
			<stop  offset="1" style="stop-color:#3493C3"/>
		</linearGradient>
		<path fill="url(#SVGID_7_)" stroke="url(#SVGID_8_)" stroke-miterlimit="10" d="M222.577,55.728
			c-12.089,0-21.892,10.323-21.892,23.064c0,12.74,9.803,23.066,21.892,23.066c12.088,0,21.889-10.326,21.889-23.066
			C244.465,66.051,234.665,55.728,222.577,55.728z M222.575,96.593c-9.327,0-16.887-7.968-16.887-17.801
			c0-9.834,7.56-17.802,16.887-17.802c9.333,0,16.896,7.968,16.896,17.802C239.471,88.625,231.908,96.593,222.575,96.593z"/>
		<linearGradient id="SVGID_9_" gradientUnits="userSpaceOnUse" x1="73.4932" y1="78.5205" x2="78.7979" y2="78.5205">
			<stop  offset="0" style="stop-color:#1B2953"/>
			<stop  offset="1" style="stop-color:#3493C3"/>
		</linearGradient>
		<linearGradient id="SVGID_10_" gradientUnits="userSpaceOnUse" x1="72.9932" y1="78.5205" x2="79.2979" y2="78.5205">
			<stop  offset="0" style="stop-color:#1B2953"/>
			<stop  offset="1" style="stop-color:#3493C3"/>
		</linearGradient>
		<path fill="url(#SVGID_9_)" stroke="url(#SVGID_10_)" stroke-miterlimit="10" d="M78.786,58.057
			c0.01-0.811-0.314-1.618-0.954-2.18c-1.121-0.985-2.792-0.829-3.73,0.354c-0.474,0.607-0.67,1.36-0.592,2.085v40.469
			c-0.007,0.077-0.012,0.155-0.012,0.232c-0.002,1.543,1.18,2.791,2.638,2.793c1.416,0.003,2.572-1.167,2.649-2.638h0.012
			l-0.009-41.116H78.786z"/>
		<linearGradient id="SVGID_11_" gradientUnits="userSpaceOnUse" x1="81.3906" y1="78.4121" x2="112.6401" y2="78.4121">
			<stop  offset="0" style="stop-color:#1B2953"/>
			<stop  offset="1" style="stop-color:#3493C3"/>
		</linearGradient>
		<linearGradient id="SVGID_12_" gradientUnits="userSpaceOnUse" x1="80.8906" y1="78.4121" x2="113.1401" y2="78.4121">
			<stop  offset="0" style="stop-color:#1B2953"/>
			<stop  offset="1" style="stop-color:#3493C3"/>
		</linearGradient>
		<path fill="url(#SVGID_11_)" stroke="url(#SVGID_12_)" stroke-miterlimit="10" d="M111.69,96.53
			c-0.046-0.041-0.096-0.073-0.142-0.112L96.77,83.658c7.318-1.277,12.834-6.974,12.834-13.804c0-7.777-7.124-14.45-15.929-14.45
			v0.003l-0.019-0.036l-9.383,0.004c-0.841-0.073-1.687,0.265-2.269,0.994c-0.938,1.181-0.781,2.94,0.338,3.926
			c0.452,0.396,0.998,0.602,1.543,0.635v0.006h0.083c0.04,0,0.079,0,0.117,0h10.7c5.337,0.431,9.209,3.946,9.209,8.828
			c0,4.848-3.688,8.602-8.949,9.11h-4.473c-0.859-0.101-1.735,0.24-2.333,0.983c-0.898,1.142-0.782,2.819,0.231,3.819v0.004
			l0.054,0.05c0.021,0.021,0.037,0.043,0.057,0.057c0.027,0.025,0.057,0.047,0.086,0.067l19.637,16.959l0,0
			c1.117,0.982,2.785,0.819,3.719-0.36C112.96,99.271,112.813,97.512,111.69,96.53z"/>
	</g>
	<g opacity="0.5">
		<polyline fill="#F0EFEF" points="16.775,18.149 71.696,1.929 45.439,2.253 16.413,18.456 		"/>
		<polygon opacity="0.1" fill="#C1C0C0" points="46.036,2.638 69.961,20.81 77.959,10.774 		"/>
		<polygon fill="#F1F4F7" points="16.21,18.534 15.403,31.421 7.815,52.181 27.733,50.376 		"/>
		<polyline fill="#E6E9EB" points="37.933,21.982 37.456,47.236 55.324,41.576 39.157,21.734 		"/>
		<polygon fill="#F1F4F7" points="58.895,35.351 55.324,41.576 39.047,22.255 		"/>
		<polygon fill="#E3E7EB" points="77.725,9.704 69.974,21.311 101.273,19.579 		"/>
		<g>
			<polygon fill="#1B2A54" points="23.324,95.974 23.379,110.187 22.913,110.187 22.851,95.976 			"/>
			<path fill="#1B2A54" d="M24.278,110.865c-0.222,0.827-1.04,1.311-1.832,1.075c-0.786-0.236-1.238-1.098-1.022-1.927
				c0.23-0.83,1.044-1.312,1.834-1.075C24.045,109.17,24.499,110.037,24.278,110.865z"/>
			<polygon fill="#1B2A54" points="76.671,10.165 46.036,2.638 46.148,2.154 76.772,9.683 			"/>
			<polygon fill="#1B2A54" points="103.114,20.412 77.773,9.698 77.942,9.248 103.285,19.951 			"/>
			<polygon fill="#1B2A54" points="101.667,19.664 73.261,2.556 73.49,2.123 101.896,19.235 			"/>
			
				<rect x="47.499" y="1.369" transform="matrix(1 0.0051 -0.0051 1 0.009 -0.3018)" fill="#1B2A54" width="24.198" height="0.499"/>
			<polygon fill="#1B2A54" points="69.974,21.311 39.047,22.255 39.036,21.757 69.961,20.81 			"/>
			
				<rect x="71.52" y="19.841" transform="matrix(0.9987 -0.0508 0.0508 0.9987 -0.9076 4.4282)" fill="#1B2A54" width="30.428" height="0.487"/>
			<polygon fill="#1B2A54" points="77.057,10.271 39.461,22.359 39.329,21.883 76.914,9.794 			"/>
			<polygon fill="#1B2A54" points="73.087,1.999 77.872,9.691 77.481,9.97 72.694,2.268 			"/>
			<polygon fill="#1B2A54" points="45.778,2.527 16.773,17.992 16.557,17.55 45.569,2.085 			"/>
			<polygon fill="#1B2A54" points="54.895,41.937 29.107,50.593 28.963,50.124 54.75,41.469 			"/>
			<polygon fill="#1B2A54" points="37.857,22.469 16.697,18.64 16.775,18.149 37.933,21.982 			"/>
			<polygon fill="#1B2A54" points="15.466,31.298 1.758,47.91 1.4,47.587 15.112,30.975 			"/>
			<polygon fill="#1B2A54" points="15.574,19.669 1.979,47.242 1.562,47.007 15.154,19.447 			"/>
			<polygon fill="#1B2A54" points="38.598,22.075 36.581,61.918 36.116,61.891 38.128,22.046 			"/>
			<polygon fill="#1B2A54" points="36.548,62.37 8.344,53.327 8.481,52.851 36.683,61.902 			"/>
			<polygon fill="#1B2A54" points="36.206,63.642 23.992,93.699 23.555,93.501 35.776,63.441 			"/>
			<polygon fill="#1B2A54" points="8.232,52.712 3.5,81.242 3.03,81.155 7.777,52.624 			"/>
			
				<rect x="-14.001" y="65.174" transform="matrix(-0.0429 -0.9991 0.9991 -0.0429 -62.5525 70.8911)" fill="#1B2A54" width="33.361" height="0.466"/>
			<polygon fill="#1B2A54" points="8.419,53.761 22.17,93.17 21.725,93.337 7.975,53.928 			"/>
			<polygon fill="#1B2A54" points="15.606,31.254 36.816,62.26 36.432,62.551 15.222,31.545 			"/>
			<polygon fill="#1B2A54" points="46.476,1.518 38.782,21.175 38.349,20.989 46.039,1.326 			"/>
			<polygon fill="#1B2A54" points="16.413,18.456 15.577,31.034 15.104,31 15.944,18.427 			"/>
			<polygon fill="#1B2A54" points="38.856,22.115 75.922,46.717 75.673,47.135 38.607,22.531 			"/>
			<polygon fill="#1B2A54" points="77.959,10.774 55.974,41.183 55.601,40.885 77.585,10.474 			"/>
			<polygon fill="#1B2A54" points="4.574,82.172 22.818,94.654 22.566,95.071 4.315,82.587 			"/>
			<polygon fill="#1B2A54" points="4.035,83.088 22.586,110.524 22.199,110.815 3.653,83.379 			"/>
			<path fill="#1B2A54" d="M47.496,2.864c-0.319,1.2-1.506,1.896-2.639,1.557c-1.139-0.338-1.797-1.589-1.476-2.779
				c0.32-1.201,1.502-1.896,2.636-1.557C47.159,0.424,47.815,1.662,47.496,2.864z"/>
			<path fill="#1B2A54" d="M38.499,63.028c-0.318,1.195-1.507,1.89-2.64,1.552c-1.135-0.339-1.794-1.581-1.474-2.778
				c0.322-1.201,1.501-1.897,2.634-1.558C38.161,60.583,38.82,61.833,38.499,63.028z"/>
			<path fill="#1B2A54" d="M105.387,20.81c-0.322,1.202-1.505,1.897-2.64,1.558c-1.138-0.339-1.797-1.588-1.475-2.789
				c0.32-1.189,1.503-1.886,2.637-1.546C105.049,18.37,105.708,19.609,105.387,20.81z"/>
			<path fill="#1B2A54" d="M18.269,19.154c-0.321,1.191-1.499,1.887-2.635,1.547c-1.145-0.339-1.8-1.578-1.481-2.777
				c0.323-1.202,1.51-1.897,2.646-1.557C17.929,16.703,18.59,17.953,18.269,19.154z"/>
			<path fill="#1B2A54" d="M10.126,53.299c-0.321,1.202-1.51,1.897-2.647,1.558c-1.133-0.337-1.792-1.588-1.47-2.785
				c0.324-1.194,1.498-1.89,2.635-1.551C9.787,50.858,10.446,52.1,10.126,53.299z"/>
			<path fill="#1B2A54" d="M25.071,95.063c-0.323,1.195-1.508,1.89-2.648,1.554c-1.132-0.341-1.794-1.585-1.471-2.788
				c0.321-1.195,1.501-1.894,2.643-1.552C24.732,92.618,25.392,93.86,25.071,95.063z"/>
			<path fill="#1B2A54" d="M79.78,10.327c-0.319,1.189-1.506,1.896-2.644,1.552c-1.131-0.344-1.792-1.584-1.47-2.784
				c0.322-1.201,1.499-1.896,2.636-1.557C79.445,7.876,80.102,9.126,79.78,10.327z"/>
			<path fill="#1B2A54" d="M73.834,2.268c-0.223,0.835-1.048,1.316-1.844,1.081c-0.789-0.239-1.25-1.105-1.028-1.941
				c0.23-0.838,1.049-1.317,1.842-1.083C73.602,0.556,74.055,1.427,73.834,2.268z"/>
			<path fill="#1B2A54" d="M71.942,21.323c-0.224,0.823-1.038,1.306-1.82,1.076c-0.79-0.241-1.251-1.099-1.024-1.929
				c0.22-0.833,1.043-1.308,1.825-1.076C71.708,19.625,72.173,20.49,71.942,21.323z"/>
			<path fill="#1B2A54" d="M4.91,82.381c-0.246,0.92-1.157,1.456-2.029,1.191C2,83.316,1.5,82.357,1.744,81.438
				c0.243-0.92,1.16-1.459,2.03-1.195C4.652,80.503,5.154,81.46,4.91,82.381z"/>
			<path fill="#1B2A54" d="M3.229,48.543c-0.253,0.922-1.159,1.455-2.034,1.195c-0.875-0.26-1.382-1.221-1.13-2.139
				c0.244-0.925,1.152-1.454,2.029-1.198C2.964,46.66,3.476,47.625,3.229,48.543z"/>
			<path fill="#1B2A54" d="M39.933,22.373c-0.241,0.869-1.101,1.38-1.936,1.137c-0.826-0.255-1.314-1.161-1.079-2.04
				c0.242-0.868,1.099-1.383,1.935-1.138C39.683,20.586,40.163,21.494,39.933,22.373z"/>
			<path fill="#1B2A54" d="M56.295,41.867c-0.153,0.566-0.707,0.893-1.247,0.73c-0.528-0.154-0.839-0.745-0.692-1.305
				c0.157-0.562,0.705-0.894,1.244-0.731C56.133,40.722,56.441,41.307,56.295,41.867z"/>
			<path fill="#1B2A54" d="M29.665,50.955c-0.144,0.56-0.706,0.887-1.236,0.729c-0.535-0.16-0.849-0.746-0.695-1.309
				c0.152-0.56,0.708-0.889,1.239-0.732C29.513,49.808,29.82,50.39,29.665,50.955z"/>
			<path fill="#1B2A54" d="M16.628,31.787c-0.19,0.714-0.894,1.129-1.57,0.925c-0.681-0.2-1.073-0.943-0.884-1.656
				c0.194-0.712,0.895-1.128,1.576-0.922C16.431,30.333,16.816,31.074,16.628,31.787z"/>
			<polygon fill="#1B2A54" points="8.696,53.353 1.364,48.722 1.602,48.297 8.934,52.93 			"/>
			<polygon fill="#1B2A54" points="28.768,50.848 7.857,52.8 7.817,52.308 28.723,50.354 			"/>
			<polygon fill="#1B2A54" points="7.815,52.181 15.096,32.222 15.539,32.396 8.251,52.365 			"/>
			<polygon fill="#1B2A54" points="39.157,21.734 16.563,31.052 16.399,30.588 38.987,21.279 			"/>
		</g>
		<path fill="#221714" stroke="#221714" stroke-width="2" stroke-miterlimit="10" d="M79.278,47.576
			c-0.473,1.769-2.221,2.797-3.903,2.297c-1.686-0.501-2.663-2.344-2.185-4.115c0.476-1.773,2.224-2.809,3.908-2.305
			C78.782,43.96,79.756,45.804,79.278,47.576z"/>
		<path fill="#F0EFEF" d="M39.047,22.255"/>
	</g>
	<linearGradient id="SVGID_13_" gradientUnits="userSpaceOnUse" x1="71.5137" y1="46.7891" x2="80.7383" y2="46.7891">
		<stop  offset="0" style="stop-color:#1B2953"/>
		<stop  offset="1" style="stop-color:#3493C3"/>
	</linearGradient>
	<path fill="url(#SVGID_13_)" d="M80.738,46.79c0,2.685-2.066,4.864-4.613,4.864c-2.544,0-4.611-2.179-4.611-4.864
		c0-2.69,2.067-4.866,4.611-4.866C78.672,41.924,80.738,44.1,80.738,46.79z"/>
</g>
</svg>
